<svg xmlns="http://www.w3.org/2000/svg" viewBox="0 0 512 512"><defs><linearGradient id="g" x1="0" y1="0" x2="1" y2="1"><stop offset="0" stop-color="#18b75a"/><stop offset="1" stop-color="#075c32"/></linearGradient></defs><rect width="512" height="512" rx="112" fill="url(#g)"/><circle cx="256" cy="256" r="170" fill="#f8fafc" stroke="#dbe4ea" stroke-width="12"/><polygon points="256,165 310,205 289,269 223,269 202,205" fill="#101820"/><g fill="#101820"><polygon points="116,224 166,190 202,205 185,267 137,281"/><polygon points="396,224 346,190 310,205 327,267 375,281"/><polygon points="173,371 185,309 223,269 274,304 250,363"/><polygon points="339,371 327,309 289,269 238,304 262,363"/><polygon points="212,98 256,82 300,98 310,145 256,165 202,145"/></g><g fill="none" stroke="#101820" stroke-width="10" stroke-linecap="round"><path d="M202 145l-36 45M310 145l36 45M137 281l48 28M375 281l-48 28M250 363l-20 49M262 363l20 49"/></g></svg>